inDegrees=no
num_controls=7
num_derivatives=13
num_iterations=128
num_multipliers=7
num_parameters=0
num_slacks=7
num_states=26
objective=0.464730
objective_accelerations=0.005318
objective_balance=0.001966
objective_effort=0.004843
objective_height=0.445949
objective_ligament=0.006654
solver_duration=1840.255148
status=Solve_Succeeded
success=true
DataType=double
version=3
OpenSimVersion=4.5
endheader
time	/jointset/ground_pelvis/pelvis_tilt/value	/jointset/ground_pelvis/pelvis_tx/value	/jointset/ground_pelvis/pelvis_ty/value	/jointset/hip_l/hip_flexion_l/value	/jointset/hip_l/hip_adduction_l/value	/jointset/hip_l/hip_rotation_l/value	/jointset/back/lumbar_extension/value	/jointset/patellofemoral_l/patellar_flexion_l/value	/jointset/knee_l/knee_flexion_l/value	/jointset/knee_l/knee_adduction_l/value	/jointset/knee_l/knee_rotation_l/value	/jointset/ankle_l/ankle_angle_l/value	/jointset/subtalar_l/subtalar_angle_l/value	/jointset/ground_pelvis/pelvis_tilt/speed	/jointset/ground_pelvis/pelvis_tx/speed	/jointset/ground_pelvis/pelvis_ty/speed	/jointset/hip_l/hip_flexion_l/speed	/jointset/hip_l/hip_adduction_l/speed	/jointset/hip_l/hip_rotation_l/speed	/jointset/back/lumbar_extension/speed	/jointset/patellofemoral_l/patellar_flexion_l/speed	/jointset/knee_l/knee_flexion_l/speed	/jointset/knee_l/knee_adduction_l/speed	/jointset/knee_l/knee_rotation_l/speed	/jointset/ankle_l/ankle_angle_l/speed	/jointset/subtalar_l/subtalar_angle_l/speed	/forceset/tau_hip_flexion_l	/forceset/tau_hip_adduction_l	/forceset/tau_hip_rotation_l	/forceset/tau_knee_flexion_l	/forceset/tau_ankle_angle_l	/forceset/tau_subtalar_angle_l	/forceset/tau_lumbar_extension	lambda_cid13_p0	lambda_cid13_p1	lambda_cid13_p2	lambda_cid13_p3	lambda_cid13_p4	lambda_cid13_p5	lambda_cid14_p0	/jointset/ground_pelvis/pelvis_tilt/accel	/jointset/ground_pelvis/pelvis_tx/accel	/jointset/ground_pelvis/pelvis_ty/accel	/jointset/hip_l/hip_flexion_l/accel	/jointset/hip_l/hip_adduction_l/accel	/jointset/hip_l/hip_rotation_l/accel	/jointset/back/lumbar_extension/accel	/jointset/patellofemoral_l/patellar_flexion_l/accel	/jointset/knee_l/knee_flexion_l/accel	/jointset/knee_l/knee_adduction_l/accel	/jointset/knee_l/knee_rotation_l/accel	/jointset/ankle_l/ankle_angle_l/accel	/jointset/subtalar_l/subtalar_angle_l/accel	gamma_cid13_p0	gamma_cid13_p1	gamma_cid13_p2	gamma_cid13_p3	gamma_cid13_p4	gamma_cid13_p5	gamma_cid14_p0
1	-0.09299606905444568	0.08500956655947975	0.8710859837101134	0.3733680824645677	-0.3869457196720552	-0.4357503942482359	-0.2594918843897043	0.347397753674593	0.3473977536748283	-0.1744110990657581	-0.1743816962422051	0.08058726419009685	0.01327744782996021	-0.03417924623197167	0.02059029253018571	-0.0008808096368256081	0.007083055622832419	0.0001936354154540766	-0.005611730384261359	0.04695649102461709	-0.004141328442103201	-0.004141328442101633	0.0002043537671319761	-9.369372754851248e-05	0.02217053071679576	0.013155858763707	-0.0612030277969286	0.05123723404703674	-0.01109403621591842	-0.1227400982501779	-0.02396915295390421	0.008650768253253352	0.09873553495455743	-43.07084148327584	-2.838601118038671	7.681652020903725	6.511011684276618	-553.9375420837868	-60.86209965789198	-41.69701560891691	0.05810601850999349	0.01240891495332304	0.1316234777324022	-0.7242852839051543	0.2499415062872571	-0.4993523392003199	0.533365121807503	-1.172756384170397	-1.172756384170291	-0.01005027946839249	-0.01858465708659568	-0.5521821907546389	-0.02066986544521204	-3.022718983319056e-10	5.492798172764241e-09	-1.910126319863191e-09	2.404928295917502e-09	-8.232401440472643e-10	7.168119245908771e-09	2.075977866915442e-10
1.01	-0.09333531395219367	0.08521611098397359	0.8710836931682667	0.373403418264768	-0.3869312039458909	-0.4358315932673895	-0.2589951021123775	0.3472982322402055	0.3472982322403523	-0.1744090493973736	-0.1743837705304827	0.08078165982717331	0.01340824306656149	-0.03366501383235455	0.02072277360989376	0.0004236076623259934	-2.565551436639786e-05	0.002713537627819806	-0.01060813946526544	0.05241248549531265	-0.01576802520784281	-0.01576802520784056	0.000208621935249427	-0.0002980577044412775	0.01671437359453129	0.01301086543912055	-0.06132098719644635	0.05143866238753159	-0.01105745692411892	-0.1224270326974344	-0.02433621194399241	0.008643455663195569	0.09879018283649431	-43.1828383832771	-2.820986127152047	7.684749941313332	6.482564121995661	-553.9279235002771	-60.81960328211918	-41.69849845875829	0.04878965858420325	0.01429550692218995	0.1299863548106717	-0.7056282053433283	0.2536186921250282	-0.4967948403725056	0.5535947678261208	-1.158386349644018	-1.158386349643933	0.006122393498203235	-0.01789644114519855	-0.5414659760152669	-0.01026357327380211	-1.138734276057274e-09	6.955174498365032e-09	-2.633648577274639e-10	3.074156582216395e-09	-2.287317869542001e-09	6.588298621416199e-09	5.818779469752009e-11
1.02	-0.09366927496436754	0.08542410577975305	0.8710944738991723	0.3733673741182481	-0.3868913683749217	-0.435962158306916	-0.2584433842587194	0.3470822918327651	0.3470822918328524	-0.1744068656415661	-0.1743871952931942	0.08092166719241657	0.01353781846845508	-0.03312246911686763	0.02088036678730966	0.001733444913627349	-0.007192933720206165	0.00525760437673618	-0.01548493445915647	0.05794360629103202	-0.02742512304831373	-0.02742512304830977	0.000231171245221416	-0.0003637886075158851	0.01129287635015074	0.01291189182219663	-0.0614389465960038	0.05164009072803399	-0.01102087763206141	-0.1221139671447413	-0.02470327093408382	0.008636143073141624	0.09884483071839499	-43.30124206402419	-2.802944470871094	7.688573759728276	6.472919925115722	-554.0094430428082	-60.78881125597651	-41.70168766347383	0.06376848168392696	0.01743133449491584	0.1327074681623525	-0.7359986976333504	0.2547744135973823	-0.4754295217777348	0.5483903868122399	-1.178836599116658	-1.178836599116347	-0.006394051097485996	0.009141957677012813	-0.5452502151778279	-0.01146592391269699	-1.939944426055894e-09	6.65396316211471e-09	1.899451102432755e-09	3.309022351753486e-09	-3.576903742242944e-09	5.09202637838661e-09	-3.039501337849894e-10
1.03	-0.09399784672555943	0.08563379740819067	0.8711183540255256	0.3732595821341081	-0.3868260167923734	-0.4361407776124404	-0.2578357975086797	0.3467496775979437	0.3467496775976542	-0.1744044677616573	-0.1743905185294367	0.08100762869074085	0.01366657685333078	-0.03260522030671391	0.02106170225079259	0.003040860573477382	-0.01435301282646376	0.007812336175525712	-0.02021193989458329	0.0636049082592809	-0.03909709536345015	-0.03909709536346372	0.0002426957995847715	-0.0002755931768793178	0.005904946094320783	0.01284202899926963	-0.06149173107735075	0.0517823493658388	-0.01099306802420123	-0.1217960569407258	-0.02498505328541215	0.008612839915128349	0.09884270957056256	-43.38574864286087	-2.783882914664305	7.692223236447088	6.439955255337185	-553.9740957373921	-60.75105523505759	-41.70652961313347	0.04370223818339308	0.0190468642216991	0.1294996666153704	-0.704145355067636	0.255765639588668	-0.4672884201255056	0.5796747831440872	-1.161283128947498	-1.161283128950279	0.004070431687331419	0.01244880477219634	-0.53473620020949	-0.004411313309851585	-2.740794859445057e-09	6.334756033396509e-09	4.067532924817717e-09	3.539455850711372e-09	-4.864709085833745e-09	3.586402588229087e-09	-6.682587554969745e-10
1.04	-0.09432164616715055	0.08584541483365245	0.8711552565188211	0.3730805627913092	-0.3867351292765244	-0.4363658574454582	-0.2571706628026962	0.3463003625237214	0.3463003625230537	-0.1744021256915981	-0.1743922017175737	0.08103987653262193	0.0137947036396117	-0.03216800519646488	0.02126552619214442	0.0043379183020731	-0.02143840545054721	0.01036479103707288	-0.02477703995802623	0.06945319748004736	-0.05076529092800144	-0.05076529092803279	0.0002200092733105019	-3.577898563438594e-05	0.0005501450615349149	0.01278557210325671	-0.06154451555876578	0.05192460800364376	-0.01096525841629551	-0.1214781467367394	-0.02526683563674693	0.008589536757110959	0.09884058842267619	-43.47664664131691	-2.764312385982192	7.696488417492482	6.425324428498558	-554.0301259016272	-60.72508067174136	-41.71297564058588	0.04776174170296223	0.02192903006872143	0.1306358819114892	-0.7210614011985317	0.2543190261489083	-0.4430484473809543	0.5857878373157318	-1.178081248999636	-1.178081248999376	-0.01323626722501404	0.03946570979869139	-0.5386243705689797	-0.008784738529864377	-3.275936889758254e-09	5.656625311295176e-09	5.16664101381221e-09	3.730992034467484e-09	-6.080501469039425e-09	2.451700956638787e-09	-8.522546522309819e-10
1.05	-0.09464135308068768	0.08605917717614242	0.8712050847283689	0.3728309581729858	-0.3866187070139594	-0.4366358686350135	-0.2564462877535796	0.3457344076223835	0.3457344076219017	-0.1744001088160034	-0.1743908105662813	0.08101875723753228	0.01392236787103539	-0.03177533155509416	0.0214901210382937	0.00562662212581185	-0.02847947872079526	0.01292161337465931	-0.02921087802104825	0.0754360726048718	-0.06242179399623592	-0.06242179399627609	0.0001864589433877962	0.0003274322205858889	-0.004766700749166572	0.01275340232627477	-0.0615244323909877	0.05201720299036904	-0.01094751273671502	-0.1211560550702166	-0.02546291849441608	0.0085473971403485	0.09876433740340398	-43.53359936236958	-2.742407040952109	7.700269801878426	6.387907393999376	-553.9688267670647	-60.69063872280118	-41.72096255348823	0.03472680106895594	0.02320230801847547	0.1278209392872522	-0.6951747892880004	0.2566559777281756	-0.4414042419471623	0.6066763892566424	-1.158850326394788	-1.158850326396262	0.002050626052294576	0.03676331875384557	-0.5271195073722359	0.0004846802609794252	-3.802775532475328e-09	4.96727822690062e-09	6.232343673638256e-09	3.921312677123541e-09	-7.294043447233071e-09	1.32859064250371e-09	-1.030615776309429e-09
1.06	-0.09495719193266923	0.08627528098631997	0.8712677666374904	0.3725110339220853	-0.3864766580999859	-0.4369497887564359	-0.2556616561453773	0.3450520045922361	0.34505200459193	-0.174398334435324	-0.1743853844043765	0.08094468852012515	0.0140498939601979	-0.03139439288512742	0.02173381972965985	0.006908658216826502	-0.03550233196504493	0.0154901213188332	-0.03355882633144478	0.08150450929733279	-0.07405491669084792	-0.07405491669089814	0.0001715102905917551	0.000771223135610794	-0.01003973940192775	0.01275794365102624	-0.06150434922325251	0.05210979797709115	-0.01092976705717649	-0.1208339634037029	-0.02565900135209041	0.008505257523579852	0.09868808638410044	-43.59690792694308	-2.719929605532472	7.704577624123851	6.368354928893005	-553.9987700077352	-60.66802165539633	-41.73044711092051	0.04541474742213436	0.02574979911212655	0.1293023353666694	-0.7174173959988648	0.2566561474663992	-0.4258704968558498	0.602900150843021	-1.173405174275144	-1.173405174275133	-0.009515931799686714	0.05558165155963139	-0.5298629389808848	-0.001442518183163128	-4.343447369340507e-09	4.447403922925168e-09	7.783889565271252e-09	4.059014148992284e-09	-8.585877159297928e-09	1.627099743021012e-10	-1.271788776561647e-09
1.07	-0.09526928338348935	0.08649391421405088	0.8713432287817073	0.3721209837474749	-0.3863088875269415	-0.4373067509514435	-0.2548159306682151	0.3442534079352515	0.3442534079351509	-0.1743966614762839	-0.1743751306697072	0.08081810693550157	0.01417762209550743	-0.03102650702524815	0.02199571496600928	0.008181945414866387	-0.04250294977427078	0.01806387490080618	-0.03782056560907652	0.08765347091297974	-0.0856578744075972	-0.0856578744076358	0.0001626293273675671	0.001289589988562906	-0.01526923193805632	0.01279138443217696	-0.06142006134972316	0.05214427447430438	-0.01091913689903613	-0.120501625114184	-0.02578139408160944	0.008451384160004309	0.09854960119131877	-43.62994070179376	-2.697621031758501	7.708871012274298	6.327802395388774	-553.9129312356492	-60.64216580457172	-41.74137436445275	0.03208372271014013	0.02684359909429459	0.1260661355684227	-0.6906715135224945	0.2577163075025962	-0.4243698394684579	0.622826883557674	-1.152759719012155	-1.152759719010405	0.00335921646228727	0.05147575054043702	-0.5183909909008846	0.006290888795400982	-4.884855014405053e-09	3.936544128546477e-09	9.361278182000364e-09	4.19391672879787e-09	-9.881875325292106e-09	-1.005445712732834e-09	-1.516302834057152e-09
1.08	-0.09557777433222379	0.08671525323678488	0.8714313686426136	0.3716610698867412	-0.3861153831492892	-0.437705939378478	-0.2539083290315705	0.3433389779713796	0.3433389779714716	-0.1743950906478743	-0.1743593909568219	0.08063945070952218	0.01430579534113473	-0.03067429246779384	0.022274978730274	0.00944420155472981	-0.04947506918901822	0.02063688224037361	-0.04200407273677376	0.09387974119391541	-0.0972215780698399	-0.09722157806986668	0.0001510841659853495	0.001868418776610441	-0.02045466767306615	0.01284696571457591	-0.06133577347622392	0.05217875097151423	-0.01090850674097641	-0.1201692868246639	-0.02590378681113201	0.008397510796423723	0.09841111599851565	-43.66928366325897	-2.674704434073701	7.713634939297528	6.304685920887179	-553.917987022087	-60.62812090183191	-41.7537012959129	0.04228048693711042	0.02922350469521597	0.127096123731376	-0.7117177171031926	0.2565068989852873	-0.4102240668689469	0.6183618839007421	-1.165554363373833	-1.165554363373781	-0.01004877143130082	0.06767403857872614	-0.521051578757101	0.002985582066499436	-5.455769116632614e-09	3.421459191104682e-09	1.076169185330213e-08	4.387919169256853e-09	-1.113098874267872e-08	-2.182920687330106e-09	-1.75757030959244e-09
